<svg xmlns="http://www.w3.org/2000/svg" viewBox="0 0 1300 130" width="1300" height="130">
  <defs>
    <linearGradient id="title" x1="0" y1="0" x2="1" y2="0">
      <stop offset="0" stop-color="#5ad0d8"/>
      <stop offset="1" stop-color="#2477a0"/>
    </linearGradient>
  </defs>

  <!-- transparent background (no fill rect) -->

  <!-- left instrument bracket -->
  <path d="M24 38 h18 M24 38 v54 M24 92 h18" fill="none" stroke="#46c7c2" stroke-width="2"/>
  <path d="M11 17 h11 M11 17 v9" fill="none" stroke="#2c5f63" stroke-width="1.5"/>
  <path d="M11 113 h11 M11 113 v-9" fill="none" stroke="#2c5f63" stroke-width="1.5"/>

  <!-- eyebrow -->
  <text x="66" y="42" fill="#46c7c2" font-family="Consolas,'Cascadia Mono',monospace"
        font-size="13" letter-spacing="4">OSF // SEC.04</text>

  <!-- title -->
  <text x="64" y="100" fill="url(#title)"
        font-family="Bahnschrift,'DIN Alternate','Arial Narrow',sans-serif"
        font-weight="700" font-size="46" letter-spacing="2">FOR AUTHORS</text>

  <!-- tick rule -->
  <line x1="66" y1="112" x2="1240" y2="112" stroke="#33424d" stroke-width="1"/>
    <line x1="66" y1="112" x2="66" y2="104" stroke="#2c5f63" stroke-width="1"/>
    <line x1="84" y1="112" x2="84" y2="108" stroke="#33424d" stroke-width="1"/>
    <line x1="102" y1="112" x2="102" y2="108" stroke="#33424d" stroke-width="1"/>
    <line x1="120" y1="112" x2="120" y2="108" stroke="#33424d" stroke-width="1"/>
    <line x1="138" y1="112" x2="138" y2="108" stroke="#33424d" stroke-width="1"/>
    <line x1="156" y1="112" x2="156" y2="104" stroke="#2c5f63" stroke-width="1"/>
    <line x1="174" y1="112" x2="174" y2="108" stroke="#33424d" stroke-width="1"/>
    <line x1="192" y1="112" x2="192" y2="108" stroke="#33424d" stroke-width="1"/>
    <line x1="210" y1="112" x2="210" y2="108" stroke="#33424d" stroke-width="1"/>
    <line x1="228" y1="112" x2="228" y2="108" stroke="#33424d" stroke-width="1"/>
    <line x1="246" y1="112" x2="246" y2="104" stroke="#2c5f63" stroke-width="1"/>
    <line x1="264" y1="112" x2="264" y2="108" stroke="#33424d" stroke-width="1"/>
    <line x1="282" y1="112" x2="282" y2="108" stroke="#33424d" stroke-width="1"/>
    <line x1="300" y1="112" x2="300" y2="108" stroke="#33424d" stroke-width="1"/>
    <line x1="318" y1="112" x2="318" y2="108" stroke="#33424d" stroke-width="1"/>
    <line x1="336" y1="112" x2="336" y2="104" stroke="#2c5f63" stroke-width="1"/>
    <line x1="354" y1="112" x2="354" y2="108" stroke="#33424d" stroke-width="1"/>
    <line x1="372" y1="112" x2="372" y2="108" stroke="#33424d" stroke-width="1"/>
    <line x1="390" y1="112" x2="390" y2="108" stroke="#33424d" stroke-width="1"/>
    <line x1="408" y1="112" x2="408" y2="108" stroke="#33424d" stroke-width="1"/>
    <line x1="426" y1="112" x2="426" y2="104" stroke="#2c5f63" stroke-width="1"/>
    <line x1="444" y1="112" x2="444" y2="108" stroke="#33424d" stroke-width="1"/>
    <line x1="462" y1="112" x2="462" y2="108" stroke="#33424d" stroke-width="1"/>
    <line x1="480" y1="112" x2="480" y2="108" stroke="#33424d" stroke-width="1"/>
    <line x1="498" y1="112" x2="498" y2="108" stroke="#33424d" stroke-width="1"/>
    <line x1="516" y1="112" x2="516" y2="104" stroke="#2c5f63" stroke-width="1"/>
    <line x1="534" y1="112" x2="534" y2="108" stroke="#33424d" stroke-width="1"/>
    <line x1="552" y1="112" x2="552" y2="108" stroke="#33424d" stroke-width="1"/>
    <line x1="570" y1="112" x2="570" y2="108" stroke="#33424d" stroke-width="1"/>
    <line x1="588" y1="112" x2="588" y2="108" stroke="#33424d" stroke-width="1"/>
    <line x1="606" y1="112" x2="606" y2="104" stroke="#2c5f63" stroke-width="1"/>
    <line x1="624" y1="112" x2="624" y2="108" stroke="#33424d" stroke-width="1"/>
    <line x1="642" y1="112" x2="642" y2="108" stroke="#33424d" stroke-width="1"/>
    <line x1="660" y1="112" x2="660" y2="108" stroke="#33424d" stroke-width="1"/>
    <line x1="678" y1="112" x2="678" y2="108" stroke="#33424d" stroke-width="1"/>
    <line x1="696" y1="112" x2="696" y2="104" stroke="#2c5f63" stroke-width="1"/>
    <line x1="714" y1="112" x2="714" y2="108" stroke="#33424d" stroke-width="1"/>
    <line x1="732" y1="112" x2="732" y2="108" stroke="#33424d" stroke-width="1"/>
    <line x1="750" y1="112" x2="750" y2="108" stroke="#33424d" stroke-width="1"/>
    <line x1="768" y1="112" x2="768" y2="108" stroke="#33424d" stroke-width="1"/>
    <line x1="786" y1="112" x2="786" y2="104" stroke="#2c5f63" stroke-width="1"/>
    <line x1="804" y1="112" x2="804" y2="108" stroke="#33424d" stroke-width="1"/>
    <line x1="822" y1="112" x2="822" y2="108" stroke="#33424d" stroke-width="1"/>
    <line x1="840" y1="112" x2="840" y2="108" stroke="#33424d" stroke-width="1"/>
    <line x1="858" y1="112" x2="858" y2="108" stroke="#33424d" stroke-width="1"/>
    <line x1="876" y1="112" x2="876" y2="104" stroke="#2c5f63" stroke-width="1"/>
    <line x1="894" y1="112" x2="894" y2="108" stroke="#33424d" stroke-width="1"/>
    <line x1="912" y1="112" x2="912" y2="108" stroke="#33424d" stroke-width="1"/>
    <line x1="930" y1="112" x2="930" y2="108" stroke="#33424d" stroke-width="1"/>
    <line x1="948" y1="112" x2="948" y2="108" stroke="#33424d" stroke-width="1"/>
    <line x1="966" y1="112" x2="966" y2="104" stroke="#2c5f63" stroke-width="1"/>
    <line x1="984" y1="112" x2="984" y2="108" stroke="#33424d" stroke-width="1"/>
    <line x1="1002" y1="112" x2="1002" y2="108" stroke="#33424d" stroke-width="1"/>
    <line x1="1020" y1="112" x2="1020" y2="108" stroke="#33424d" stroke-width="1"/>
    <line x1="1038" y1="112" x2="1038" y2="108" stroke="#33424d" stroke-width="1"/>
    <line x1="1056" y1="112" x2="1056" y2="104" stroke="#2c5f63" stroke-width="1"/>
    <line x1="1074" y1="112" x2="1074" y2="108" stroke="#33424d" stroke-width="1"/>
    <line x1="1092" y1="112" x2="1092" y2="108" stroke="#33424d" stroke-width="1"/>
    <line x1="1110" y1="112" x2="1110" y2="108" stroke="#33424d" stroke-width="1"/>
    <line x1="1128" y1="112" x2="1128" y2="108" stroke="#33424d" stroke-width="1"/>
    <line x1="1146" y1="112" x2="1146" y2="104" stroke="#2c5f63" stroke-width="1"/>
    <line x1="1164" y1="112" x2="1164" y2="108" stroke="#33424d" stroke-width="1"/>
    <line x1="1182" y1="112" x2="1182" y2="108" stroke="#33424d" stroke-width="1"/>
    <line x1="1200" y1="112" x2="1200" y2="108" stroke="#33424d" stroke-width="1"/>
    <line x1="1218" y1="112" x2="1218" y2="108" stroke="#33424d" stroke-width="1"/>
</svg>
